<svg xmlns="http://www.w3.org/2000/svg" x="0px" y="0px" width="100" height="100" viewBox="0 0 48 48">
<path d="M 15.232422 3.9414062 C 14.935389 3.9249449 14.640742 3.9388249 14.351562 3.9804688 C 12.616489 4.2303314 11.098689 5.4886608 10.623047 7.2773438 L 9.546875 11.324219 A 1.50015 1.50015 0 1 0 12.445312 12.09375 L 13.521484 8.0488281 C 13.739295 7.2297386 14.538107 6.7668883 15.355469 6.984375 A 1.50015 1.50015 0 0 0 15.357422 6.984375 L 39.953125 13.521484 C 40.772215 13.739295 41.235065 14.538107 41.017578 15.355469 A 1.50015 1.50015 0 0 0 41.017578 15.357422 L 37.255859 29.503906 A 1.5006213 1.5006213 0 1 0 40.15625 30.275391 L 43.916016 16.126953 C 44.550529 13.742315 43.107567 11.257237 40.722656 10.623047 L 16.126953 4.0839844 C 15.828874 4.0046702 15.529455 3.9578676 15.232422 3.9414062 z M 9.4570312 15.693359 A 1.50015 1.50015 0 0 0 8.0839844 16.826172 L 4.0839844 31.873047 C 3.4494711 34.257685 4.8924332 36.742763 7.2773438 37.376953 L 31.873047 43.916016 C 34.257685 44.550529 36.744717 43.107567 37.378906 40.722656 L 38.181641 37.705078 A 1.5006212 1.5006212 0 1 0 35.28125 36.933594 L 34.478516 39.951172 C 34.260705 40.770261 33.461893 41.233112 32.644531 41.015625 L 8.0488281 34.478516 C 7.2297386 34.260705 6.7668883 33.461893 6.984375 32.644531 A 1.50015 1.50015 0 0 0 6.984375 32.642578 L 10.984375 17.597656 A 1.50015 1.50015 0 0 0 9.4570312 15.693359 z M 21.458984 18.226562 A 1.50015 1.50015 0 0 0 20.070312 19.339844 L 18.275391 26.09375 A 1.50015 1.50015 0 0 0 19.339844 27.929688 L 26.09375 29.724609 A 1.50015 1.50015 0 0 0 27.927734 28.660156 L 29.724609 21.90625 A 1.50015 1.50015 0 0 0 28.660156 20.072266 L 21.90625 18.275391 A 1.50015 1.50015 0 0 0 21.458984 18.226562 z M 22.583984 21.560547 L 26.439453 22.585938 L 25.414062 26.441406 L 21.558594 25.416016 L 22.583984 21.560547 z"></path>
</svg>